<mxfile host="65bd71144e">
    <diagram id="5Lr-rj7CYV2ULfLIPz0t" name="Page-1">
        <mxGraphModel dx="987" dy="430" grid="1" gridSize="10" guides="1" tooltips="1" connect="1" arrows="1" fold="1" page="1" pageScale="1" pageWidth="827" pageHeight="1169" math="0" shadow="0">
            <root>
                <mxCell id="0"/>
                <mxCell id="1" parent="0"/>
                <mxCell id="72" value="" style="endArrow=none;html=1;" parent="1" edge="1">
                    <mxGeometry width="50" height="50" relative="1" as="geometry">
                        <mxPoint x="340" y="320" as="sourcePoint"/>
                        <mxPoint x="340" y="40" as="targetPoint"/>
                    </mxGeometry>
                </mxCell>
                <mxCell id="73" value="ADMINISTRADOR" style="rounded=0;whiteSpace=wrap;html=1;" parent="1" vertex="1">
                    <mxGeometry x="280" width="120" height="60" as="geometry"/>
                </mxCell>
                <mxCell id="74" value="CONTADOR" style="rounded=0;whiteSpace=wrap;html=1;" parent="1" vertex="1">
                    <mxGeometry x="500" width="120" height="60" as="geometry"/>
                </mxCell>
                <mxCell id="75" value="Aprobada" style="ellipse;whiteSpace=wrap;html=1;" parent="1" vertex="1">
                    <mxGeometry x="200" y="80" width="120" height="80" as="geometry"/>
                </mxCell>
                <mxCell id="76" value="" style="endArrow=none;html=1;" parent="1" edge="1">
                    <mxGeometry width="50" height="50" relative="1" as="geometry">
                        <mxPoint x="559.66" y="340" as="sourcePoint"/>
                        <mxPoint x="559.66" y="60" as="targetPoint"/>
                    </mxGeometry>
                </mxCell>
                <mxCell id="77" value="Atendida" style="ellipse;whiteSpace=wrap;html=1;" parent="1" vertex="1">
                    <mxGeometry x="390" y="80" width="120" height="80" as="geometry"/>
                </mxCell>
                <mxCell id="78" value="Contabilizada" style="ellipse;whiteSpace=wrap;html=1;" parent="1" vertex="1">
                    <mxGeometry x="600" y="80" width="120" height="80" as="geometry"/>
                </mxCell>
                <mxCell id="79" value="" style="endArrow=classic;html=1;exitX=1;exitY=0.5;exitDx=0;exitDy=0;" parent="1" source="75" edge="1">
                    <mxGeometry width="50" height="50" relative="1" as="geometry">
                        <mxPoint x="280" y="260" as="sourcePoint"/>
                        <mxPoint x="390" y="120" as="targetPoint"/>
                    </mxGeometry>
                </mxCell>
                <mxCell id="80" value="" style="endArrow=classic;html=1;exitX=1;exitY=0.5;exitDx=0;exitDy=0;entryX=0;entryY=0.5;entryDx=0;entryDy=0;" parent="1" source="77" target="78" edge="1">
                    <mxGeometry width="50" height="50" relative="1" as="geometry">
                        <mxPoint x="530" y="110" as="sourcePoint"/>
                        <mxPoint x="600" y="110" as="targetPoint"/>
                    </mxGeometry>
                </mxCell>
                <mxCell id="113" value="" style="endArrow=none;html=1;" parent="1" edge="1">
                    <mxGeometry width="50" height="50" relative="1" as="geometry">
                        <mxPoint x="120" y="200" as="sourcePoint"/>
                        <mxPoint x="720" y="200" as="targetPoint"/>
                    </mxGeometry>
                </mxCell>
                <mxCell id="114" value="" style="endArrow=none;html=1;" parent="1" edge="1">
                    <mxGeometry width="50" height="50" relative="1" as="geometry">
                        <mxPoint x="120" y="240" as="sourcePoint"/>
                        <mxPoint x="720" y="240" as="targetPoint"/>
                    </mxGeometry>
                </mxCell>
                <mxCell id="115" value="" style="endArrow=none;html=1;" parent="1" edge="1">
                    <mxGeometry width="50" height="50" relative="1" as="geometry">
                        <mxPoint x="120" y="280" as="sourcePoint"/>
                        <mxPoint x="724" y="280" as="targetPoint"/>
                    </mxGeometry>
                </mxCell>
                <mxCell id="116" value="TieneFactura" style="text;html=1;strokeColor=none;fillColor=none;align=center;verticalAlign=middle;whiteSpace=wrap;rounded=0;" parent="1" vertex="1">
                    <mxGeometry x="130" y="210" width="40" height="20" as="geometry"/>
                </mxCell>
                <mxCell id="117" value="Factura Contabilizada" style="text;html=1;strokeColor=none;fillColor=none;align=center;verticalAlign=middle;whiteSpace=wrap;rounded=0;" parent="1" vertex="1">
                    <mxGeometry x="130" y="250" width="40" height="20" as="geometry"/>
                </mxCell>
                <mxCell id="118" value="" style="endArrow=none;html=1;" parent="1" edge="1">
                    <mxGeometry width="50" height="50" relative="1" as="geometry">
                        <mxPoint x="200" y="280" as="sourcePoint"/>
                        <mxPoint x="200" y="200" as="targetPoint"/>
                    </mxGeometry>
                </mxCell>
                <mxCell id="119" value="null" style="text;html=1;strokeColor=none;fillColor=none;align=center;verticalAlign=middle;whiteSpace=wrap;rounded=0;" parent="1" vertex="1">
                    <mxGeometry x="250" y="210" width="40" height="20" as="geometry"/>
                </mxCell>
                <mxCell id="120" value="1 o 0" style="text;html=1;strokeColor=none;fillColor=none;align=center;verticalAlign=middle;whiteSpace=wrap;rounded=0;" parent="1" vertex="1">
                    <mxGeometry x="420" y="210" width="40" height="20" as="geometry"/>
                </mxCell>
                <mxCell id="121" value="1 o 0" style="text;html=1;strokeColor=none;fillColor=none;align=center;verticalAlign=middle;whiteSpace=wrap;rounded=0;" parent="1" vertex="1">
                    <mxGeometry x="630" y="210" width="40" height="20" as="geometry"/>
                </mxCell>
                <mxCell id="122" value="null" style="text;html=1;strokeColor=none;fillColor=none;align=center;verticalAlign=middle;whiteSpace=wrap;rounded=0;" parent="1" vertex="1">
                    <mxGeometry x="250" y="250" width="40" height="20" as="geometry"/>
                </mxCell>
                <mxCell id="123" value="null" style="text;html=1;strokeColor=none;fillColor=none;align=center;verticalAlign=middle;whiteSpace=wrap;rounded=0;" parent="1" vertex="1">
                    <mxGeometry x="420" y="250" width="40" height="20" as="geometry"/>
                </mxCell>
                <mxCell id="124" value="1 o 0" style="text;html=1;strokeColor=none;fillColor=none;align=center;verticalAlign=middle;whiteSpace=wrap;rounded=0;" parent="1" vertex="1">
                    <mxGeometry x="630" y="250" width="40" height="20" as="geometry"/>
                </mxCell>
                <mxCell id="126" value="Mientras el requerimiento no tenga factura, el administrador podrá modificar sus archivos." style="text;html=1;strokeColor=none;fillColor=none;align=center;verticalAlign=middle;whiteSpace=wrap;rounded=0;" parent="1" vertex="1">
                    <mxGeometry x="10" width="180" height="100" as="geometry"/>
                </mxCell>
                <mxCell id="127" value="Una vez que el Administrador haya subido la factura, se notificará al Contador quién verá el requerimiento con el atributo Factura NO CONTABILIZADA" style="text;html=1;strokeColor=none;fillColor=none;align=center;verticalAlign=middle;whiteSpace=wrap;rounded=0;" parent="1" vertex="1">
                    <mxGeometry y="80" width="180" height="100" as="geometry"/>
                </mxCell>
                <mxCell id="128" value="El Contador podrá marcar la factura como contabilizada, independientemente de si ya contabilizo el requerimiento" style="text;html=1;strokeColor=none;fillColor=none;align=center;verticalAlign=middle;whiteSpace=wrap;rounded=0;" parent="1" vertex="1">
                    <mxGeometry x="740" width="180" height="100" as="geometry"/>
                </mxCell>
                <mxCell id="129" value="Cuando el administrador quiere atender un requerimiento , pueden haber 2 casos: &lt;br&gt;1. El admin ya tiene la factura&lt;br&gt;En cuyo caso, subirá los archivos primero (incluyendo la factura), luego marcará que ya subió la factura y luego ATENDERÁ el requerimiento.&lt;br&gt;&lt;br&gt;&lt;br&gt;2. El admin todavia no tiene la factura&lt;br&gt;En este caso, el administrador podrá atender el REQ sin problema (Lo cual simplemente derivará el REQ al contador para que pueda contabilizarlo), y podrá subir sus archivos hasta que marque que ya subió la factura. A partir de ese momento ya no podrá subir más archivos.&lt;br&gt;&lt;br&gt;" style="text;html=1;strokeColor=none;fillColor=none;align=center;verticalAlign=middle;whiteSpace=wrap;rounded=0;" parent="1" vertex="1">
                    <mxGeometry x="10" y="640" width="300" height="300" as="geometry"/>
                </mxCell>
                <mxCell id="130" value="Cuando el contador desea contabilizar un requerimiento pueden presentarse 2 casos:&lt;br&gt;&lt;br&gt;1. El requerimiento ya viene con factura&lt;br&gt;En este caso, el contador deberá marcar como contabilizada la factura y luego contabilizar el requerimiento.&lt;br&gt;&lt;br&gt;&lt;br&gt;2. El requerimiento no tiene factura:&lt;br&gt;En este caso, el contador podrá contabilizar el requerimiento. Y queda a la espera de que el admin suba la factura, cuando esto suceda , al contador le aparecerá en el listado de requerimientos aquellas facturas que aun no contabiliza. Entonces ingresará y marcará como contabilizadas las facturas de cada requerimiento.&lt;br&gt;" style="text;html=1;strokeColor=none;fillColor=none;align=center;verticalAlign=middle;whiteSpace=wrap;rounded=0;" parent="1" vertex="1">
                    <mxGeometry x="360" y="640" width="300" height="300" as="geometry"/>
                </mxCell>
            </root>
        </mxGraphModel>
    </diagram>
</mxfile>